<svg width="1024" height="1024" viewBox="0 0 1024 1024" fill="none" xmlns="http://www.w3.org/2000/svg">
<rect width="1024" height="1024" fill="url(#paint0_linear_27928_446)"/>
<g filter="url(#filter0_d_27928_446)">
<path d="M717.686 490.849L701.44 474.344C689.709 462.412 670.559 462.268 658.626 473.999L642.122 490.245C630.189 501.977 630.045 521.127 641.777 533.06L716.737 609.257C728.469 621.19 747.619 621.333 759.552 609.602L835.749 534.641C847.682 522.909 847.826 503.76 836.094 491.827L819.848 475.322C808.117 463.389 788.967 463.246 777.034 474.977L760.529 491.223C748.597 502.954 729.447 502.782 717.715 490.878L717.686 490.849Z" fill="#FFF1CD"/>
<path d="M672.434 642.5L672.636 619.325C672.779 602.619 659.323 588.932 642.617 588.788L619.441 588.587C602.735 588.443 589.049 601.9 588.905 618.606L588.014 725.483C587.87 742.189 601.327 755.876 618.032 756.02L724.91 756.911C741.616 757.055 755.303 743.598 755.446 726.892L755.648 703.717C755.791 687.011 742.335 673.324 725.629 673.18L702.453 672.979C685.747 672.835 672.291 659.177 672.434 642.443V642.5Z" fill="#FFF1CD"/>
<path d="M533.151 717.69L549.656 701.445C561.589 689.713 561.732 670.563 550.001 658.63L533.755 642.126C522.023 630.193 502.873 630.049 490.941 641.781L414.743 716.742C402.811 728.473 402.667 747.623 414.398 759.556L489.359 835.753C501.091 847.686 520.241 847.83 532.173 836.098L548.678 819.852C560.611 808.121 560.755 788.971 549.023 777.038L532.777 760.533C521.046 748.601 521.218 729.451 533.122 717.719L533.151 717.69Z" fill="#FFF1CD"/>
<path d="M381.511 672.427L404.687 672.628C421.393 672.772 435.08 659.315 435.223 642.609L435.425 619.434C435.568 602.728 422.112 589.041 405.406 588.897L298.528 588.006C281.822 587.862 268.136 601.319 267.992 618.025L267.101 724.902C266.957 741.608 280.413 755.295 297.119 755.439L320.295 755.64C337.001 755.784 350.688 742.327 350.831 725.621L351.033 702.446C351.176 685.74 364.834 672.283 381.569 672.427H381.511Z" fill="#FFF1CD"/>
<path d="M306.313 533.148L322.559 549.652C334.291 561.585 353.441 561.729 365.374 549.997L381.878 533.751C393.811 522.02 393.955 502.87 382.223 490.937L307.262 414.74C295.531 402.807 276.381 402.663 264.448 414.395L188.251 489.356C176.318 501.087 176.174 520.237 187.906 532.17L204.152 548.675C215.883 560.607 235.033 560.751 246.966 549.02L263.47 532.774C275.403 521.042 294.553 521.215 306.285 533.119L306.313 533.148Z" fill="#FFF1CD"/>
<path d="M351.605 381.5L351.404 404.675C351.26 421.381 364.717 435.068 381.423 435.212L404.599 435.413C421.304 435.557 434.991 422.1 435.135 405.394L436.026 298.517C436.17 281.811 422.713 268.124 406.007 267.98L299.13 267.089C282.424 266.945 268.737 280.402 268.594 297.108L268.392 320.283C268.248 336.989 281.705 350.676 298.411 350.82L321.587 351.021C338.292 351.165 351.749 364.823 351.605 381.558V381.5Z" fill="#FFF1CD"/>
<path d="M490.853 306.31L474.348 322.556C462.415 334.287 462.272 353.437 474.003 365.37L490.249 381.875C501.98 393.807 521.13 393.951 533.063 382.22L609.26 307.259C621.193 295.527 621.337 276.377 609.605 264.445L534.645 188.247C522.913 176.314 503.763 176.171 491.83 187.902L475.326 204.148C463.393 215.88 463.249 235.03 474.981 246.962L491.227 263.467C502.958 275.4 502.786 294.55 490.882 306.281L490.853 306.31Z" fill="#FFF1CD"/>
<path d="M642.496 351.594L619.32 351.393C602.614 351.249 588.927 364.706 588.784 381.412L588.582 404.587C588.439 421.293 601.895 434.98 618.601 435.124L725.479 436.015C742.185 436.159 755.871 422.702 756.015 405.996L756.907 299.119C757.05 282.413 743.594 268.726 726.888 268.582L703.712 268.381C687.006 268.237 673.32 281.694 673.176 298.4L672.975 321.575C672.831 338.281 659.173 351.738 642.438 351.594H642.496Z" fill="#FFF1CD"/>
</g>
<defs>
<filter id="filter0_d_27928_446" x="157.87" y="168.533" width="708.26" height="708.268" filterUnits="userSpaceOnUse" color-interpolation-filters="sRGB">
<feFlood flood-opacity="0" result="BackgroundImageFix"/>
<feColorMatrix in="SourceAlpha" type="matrix" values="0 0 0 0 0 0 0 0 0 0 0 0 0 0 0 0 0 0 127 0" result="hardAlpha"/>
<feOffset dy="10.6667"/>
<feGaussianBlur stdDeviation="10.6667"/>
<feComposite in2="hardAlpha" operator="out"/>
<feColorMatrix type="matrix" values="0 0 0 0 0 0 0 0 0 0 0 0 0 0 0 0 0 0 0.15 0"/>
<feBlend mode="normal" in2="BackgroundImageFix" result="effect1_dropShadow_27928_446"/>
<feBlend mode="normal" in="SourceGraphic" in2="effect1_dropShadow_27928_446" result="shape"/>
</filter>
<linearGradient id="paint0_linear_27928_446" x1="168.911" y1="879.844" x2="874.303" y2="156.326" gradientUnits="userSpaceOnUse">
<stop stop-color="#D55711"/>
<stop offset="0.255" stop-color="#E77C13"/>
<stop offset="0.725" stop-color="#FAC02C"/>
<stop offset="1" stop-color="#FFE879"/>
</linearGradient>
</defs>
</svg>
