<svg viewBox="0 0 1024 1024" fill="none" xmlns="http://www.w3.org/2000/svg">
  <path fill="#fff" d="M0 0h1024v1024H0z"/>
  <path d="m717.686 490.849-16.246-16.505c-11.731-11.932-30.881-12.076-42.814-.345l-16.504 16.246c-11.933 11.732-12.077 30.882-.345 42.815l74.96 76.197c11.732 11.933 30.882 12.076 42.815.345l76.197-74.961c11.933-11.732 12.077-30.881.345-42.814l-16.246-16.505c-11.731-11.933-30.881-12.076-42.814-.345l-16.505 16.246c-11.932 11.731-31.082 11.559-42.814-.345l-.029-.029ZM672.435 642.5l.201-23.175c.144-16.706-13.313-30.393-30.019-30.537l-23.176-.201c-16.705-.144-30.392 13.313-30.536 30.019l-.891 106.877c-.144 16.706 13.313 30.393 30.019 30.537l106.877.891c16.706.144 30.393-13.313 30.536-30.019l.202-23.175c.143-16.706-13.313-30.393-30.019-30.537l-23.176-.201c-16.706-.144-30.162-13.802-30.018-30.536v.057ZM533.151 717.69l16.505-16.245c11.933-11.732 12.076-30.882.345-42.815l-16.246-16.504c-11.732-11.933-30.882-12.077-42.814-.345l-76.198 74.961c-11.932 11.731-12.076 30.881-.345 42.814l74.961 76.197c11.732 11.933 30.882 12.077 42.814.345l16.505-16.246c11.933-11.731 12.077-30.881.345-42.814l-16.246-16.505c-11.731-11.932-11.559-31.082.345-42.814l.029-.029ZM381.512 672.427l23.175.201c16.706.144 30.393-13.313 30.536-30.019l.202-23.175c.144-16.706-13.313-30.393-30.019-30.537l-106.878-.891c-16.705-.144-30.392 13.313-30.536 30.019l-.891 106.877c-.144 16.706 13.313 30.393 30.018 30.537l23.176.201c16.706.144 30.393-13.313 30.536-30.019l.202-23.175c.143-16.706 13.801-30.163 30.536-30.019h-.057ZM306.313 533.148l16.246 16.504c11.732 11.933 30.882 12.077 42.815.345l16.504-16.246c11.933-11.731 12.077-30.881.345-42.814l-74.961-76.197c-11.731-11.933-30.881-12.077-42.814-.345l-76.197 74.961c-11.933 11.731-12.077 30.881-.345 42.814l16.246 16.505c11.731 11.932 30.881 12.076 42.814.345l16.504-16.246c11.933-11.732 31.083-11.559 42.815.345l.028.029ZM351.605 381.5l-.201 23.175c-.144 16.706 13.313 30.393 30.019 30.537l23.176.201c16.705.144 30.392-13.313 30.536-30.019l.891-106.877c.144-16.706-13.313-30.393-30.019-30.537l-106.877-.891c-16.706-.144-30.393 13.313-30.536 30.019l-.202 23.175c-.144 16.706 13.313 30.393 30.019 30.537l23.176.201c16.705.144 30.162 13.802 30.018 30.537v-.058ZM490.853 306.31l-16.505 16.246c-11.933 11.731-12.076 30.881-.345 42.814l16.246 16.505c11.731 11.932 30.881 12.076 42.814.345l76.197-74.961c11.933-11.732 12.077-30.882.346-42.814l-74.961-76.198c-11.732-11.933-30.882-12.076-42.815-.345l-16.504 16.246c-11.933 11.732-12.077 30.882-.345 42.814l16.246 16.505c11.731 11.933 11.559 31.083-.345 42.814l-.029.029ZM642.496 351.594l-23.176-.201c-16.706-.144-30.393 13.313-30.536 30.019l-.202 23.175c-.143 16.706 13.313 30.393 30.019 30.537l106.878.891c16.706.144 30.392-13.313 30.536-30.019l.891-106.877c.144-16.706-13.312-30.393-30.018-30.537l-23.176-.201c-16.706-.144-30.392 13.313-30.536 30.019l-.202 23.175c-.143 16.706-13.801 30.163-30.536 30.019h.058Z" fill="#FAC02C"/>
</svg>
