<svg viewBox="0 0 172 32" fill="none" xmlns="http://www.w3.org/2000/svg">
  <circle cx="16.5" cy="16" r="16" fill="#FAC02C"/>
  <path d="m23.091 21.555.803-.006a1.049 1.049 0 0 1 1.057 1.039l.007.802c.005.578-.461 1.083-1.04 1.088H20.22c-.578.005-1.083-.461-1.088-1.04V19.74a1.049 1.049 0 0 1 1.04-1.057l.802-.007a1.049 1.049 0 0 1 1.056 1.04l.008.801a1.048 1.048 0 0 0 1.056 1.04h-.002ZM7.897 16.747l-.563.573a1.049 1.049 0 0 1-1.482.012l-.572-.562c-.412-.405-.44-1.092-.035-1.504l2.616-2.616c.406-.412 1.092-.44 1.504-.034l2.617 2.616c.412.405.418 1.07.012 1.482l-.562.572a1.049 1.049 0 0 1-1.482.013l-.573-.563a1.048 1.048 0 0 0-1.482.013l.002-.002ZM23.655 15.277l-.562-.572a1.049 1.049 0 0 0-1.483-.013l-.572.562c-.412.406-.44 1.092-.034 1.504l2.616 2.616c.405.413 1.091.44 1.504.035l2.616-2.616c.412-.405.418-1.07.012-1.482l-.562-.572a1.049 1.049 0 0 0-1.482-.013l-.572.562c-.413.406-1.076.4-1.482-.013l.001.002ZM15.777 7.411l-.572-.562a1.049 1.049 0 0 1-.013-1.482l.562-.572c.406-.413 1.092-.44 1.504-.035l2.616 2.616c.413.405.44 1.092.035 1.504l-2.616 2.616a1.049 1.049 0 0 1-1.482.013l-.572-.563a1.049 1.049 0 0 1-.013-1.482l.562-.572c.406-.412.4-1.076-.013-1.482l.002.001ZM9.919 10.431l-.803.008a1.049 1.049 0 0 1-1.057-1.04l-.007-.802c-.005-.578.461-1.083 1.04-1.088h3.699c.578-.005 1.083.461 1.088 1.04v3.699a1.049 1.049 0 0 1-1.04 1.057l-.802.007a1.049 1.049 0 0 1-1.057-1.04l-.007-.801a1.048 1.048 0 0 0-1.056-1.04h.002ZM17.224 23.139l.572-.563c.412-.405.418-1.07.012-1.482l-.562-.572c-.405-.412-1.091-.44-1.504-.035l-2.616 2.616c-.412.406-.44 1.092-.034 1.504l2.616 2.616c.405.413 1.07.419 1.482.013l.572-.562c.412-.406.418-1.07.013-1.482l-.563-.573a1.048 1.048 0 0 1 .013-1.482l-.001.002ZM10.945 22.591l.007.803a1.049 1.049 0 0 1-1.04 1.057l-.802.007c-.578.005-1.083-.461-1.088-1.04V19.72c-.005-.578.461-1.083 1.04-1.088h3.7a1.049 1.049 0 0 1 1.056 1.04l.007.802a1.049 1.049 0 0 1-1.039 1.056l-.802.008a1.048 1.048 0 0 0-1.04 1.056v-.002ZM22.02 9.37l-.006-.802a1.049 1.049 0 0 1 1.039-1.057l.802-.007c.578-.005 1.083.461 1.088 1.04v3.7c.005.577-.461 1.082-1.04 1.087h-3.699a1.049 1.049 0 0 1-1.057-1.04l-.007-.801a1.049 1.049 0 0 1 1.04-1.057l.802-.007a1.048 1.048 0 0 0 1.039-1.057v.002Z" fill="#000"/>
  <path d="m42.22 21.857 3.825-10.048h8.123c.398 0 .726.093.984.279.267.186.44.437.52.754.091.307.065.65-.08 1.032l-.718 1.884c-.046.121-.1.238-.162.35-.05.102-.111.2-.186.292.082.177.128.382.14.614.01.233-.029.466-.117.698l-.792 2.08a2.83 2.83 0 0 1-.706 1.032c-.32.317-.684.568-1.094.754-.399.186-.803.28-1.21.28h-8.528Zm3.143-2.177h6.092l.702-1.842h-6.093l-.701 1.842Zm1.53-4.02h5.674l.638-1.674H47.53l-.637 1.675ZM54.689 21.857l3.081-8.094h2.285l-3.081 8.094h-2.285Zm3.272-8.597.818-2.149h2.285l-.818 2.15h-2.285ZM60.737 21.857c-.398 0-.726-.093-.983-.279a1.302 1.302 0 0 1-.51-.74c-.083-.307-.055-.642.083-1.005l3.225-8.47h2.285l-.914 2.4h3.21l-.812 2.135h-3.21l-1.456 3.824h3.21l-.813 2.135h-3.315ZM67.58 21.857c-.39 0-.712-.093-.97-.279a1.302 1.302 0 0 1-.51-.74c-.082-.307-.054-.642.084-1.005l1.54-4.047a2.78 2.78 0 0 1 .682-1.005 3.882 3.882 0 0 1 1.073-.74c.4-.185.793-.278 1.181-.278h6.6l-.812 2.135h-6.481l-1.456 3.824h6.496l-.813 2.135H67.58ZM77.966 21.857c-.389 0-.712-.093-.97-.279a1.303 1.303 0 0 1-.51-.74c-.082-.307-.053-.642.085-1.005l1.54-4.047a2.78 2.78 0 0 1 .681-1.005 3.879 3.879 0 0 1 1.073-.74c.4-.185.794-.278 1.182-.278h4.45c.398 0 .726.093.984.279.257.186.422.432.495.74.082.306.054.641-.084 1.004l-1.54 4.048a2.783 2.783 0 0 1-.682 1.004 3.67 3.67 0 0 1-1.058.74c-.4.186-.798.28-1.197.28h-4.45Zm.932-2.135h4.21l1.456-3.824h-4.21l-1.456 3.824ZM86.304 21.857l3.081-8.094h2.285l-3.082 8.094h-2.284Zm3.272-8.597.818-2.149h2.285l-.818 2.15h-2.285ZM90.493 21.857l3.081-8.094h6.616c.398 0 .726.093.984.279.257.186.422.432.494.74.083.306.055.641-.083 1.004l-2.311 6.071h-2.285l2.268-5.96h-4.21l-2.27 5.96h-2.284ZM105.874 21.857l3.038-7.983a2.84 2.84 0 0 1 .692-1.032c.32-.317.684-.568 1.093-.754.41-.186.813-.28 1.212-.28h6.316c.408 0 .741.094.999.28.268.186.441.437.519.754.093.307.066.65-.079 1.032l-3.039 7.983h-2.344l1.232-3.238h-6.092l-1.233 3.238h-2.314Zm4.375-5.415h6.093l.935-2.456h-6.093l-.935 2.456ZM118.416 21.857l2.311-6.07c.138-.364.365-.699.681-1.006a3.886 3.886 0 0 1 1.073-.74c.4-.185.798-.278 1.197-.278h4.778l-.813 2.135h-4.674l-2.268 5.96h-2.285ZM128.576 21.857c-.388 0-.711-.093-.969-.279a1.3 1.3 0 0 1-.51-.74c-.082-.307-.054-.642.084-1.005l1.541-4.047c.138-.363.365-.697.681-1.005a3.871 3.871 0 0 1 1.073-.74 2.78 2.78 0 0 1 1.181-.278h6.6l-.812 2.135h-6.481l-1.456 3.824h6.496l-.813 2.135h-6.615ZM138.977 21.857c-.398 0-.726-.093-.984-.279a1.303 1.303 0 0 1-.509-.74c-.073-.307-.04-.642.098-1.005l1.18-3.098h6.495l.319-.837h-6.496l.813-2.135h6.616c.398 0 .726.093.983.279.258.186.423.432.495.74.083.306.055.641-.084 1.004l-2.31 6.071h-6.616Zm.933-2.135h4.211l.425-1.117h-4.211l-.425 1.117ZM149.062 21.857c-.398 0-.726-.093-.984-.279a1.3 1.3 0 0 1-.51-.74c-.072-.307-.039-.642.099-1.005l1.541-4.047c.138-.363.36-.697.666-1.005a3.871 3.871 0 0 1 1.073-.74 2.81 2.81 0 0 1 1.196-.278h4.346l1.009-2.652h2.285l-4.091 10.746h-6.63Zm.947-2.135h4.211l1.456-3.824h-4.211l-1.456 3.824ZM159.254 21.857c-.388 0-.711-.093-.969-.279a1.3 1.3 0 0 1-.51-.74c-.082-.307-.054-.642.084-1.005l1.541-4.047c.138-.363.365-.697.681-1.005a3.886 3.886 0 0 1 1.073-.74 2.78 2.78 0 0 1 1.181-.278h4.45c.398 0 .726.093.984.279.258.186.423.432.495.74.082.306.054.641-.084 1.004l-1.179 3.098h-6.496l-.319.838h6.496l-.813 2.135h-6.615Zm1.963-4.843h4.211l.425-1.116h-4.211l-.425 1.116Z" fill="#FAC02C"/>
</svg>
