<svg width="172" height="32" viewBox="0 0 172 32" fill="none" xmlns="http://www.w3.org/2000/svg">
    <path
        d="M23.8238 22.173L24.7152 22.1652C25.3577 22.1597 25.8841 22.6773 25.8897 23.3198L25.8974 24.2112C25.9029 24.8537 25.3854 25.4144 24.7428 25.4199H20.6321C19.9896 25.4255 19.4289 24.9079 19.4234 24.2654V20.1547C19.4179 19.5121 19.9354 18.9857 20.578 18.9802L21.4693 18.9725C22.1119 18.9669 22.6383 19.4845 22.6438 20.127L22.6515 21.0184C22.6571 21.6609 23.1824 22.1785 23.826 22.173H23.8238Z"
        fill="black" />
    <path
        d="M6.9407 16.8306L6.31588 17.4664C5.86545 17.9247 5.12724 17.9309 4.66899 17.4805L4.03323 16.8557C3.57498 16.4052 3.54448 15.6428 3.99491 15.1845L6.9016 12.2779C7.35203 11.8196 8.11448 11.7891 8.57273 12.2395L11.4794 15.1462C11.9377 15.5967 11.9439 16.3349 11.4935 16.7931L10.8687 17.4289C10.4182 17.8871 9.68003 17.8934 9.22178 17.4429L8.58602 16.8181C8.12777 16.3677 7.39035 16.3732 6.93913 16.8322L6.9407 16.8306Z"
        fill="black" />
    <path
        d="M24.45 15.1965L23.8252 14.5607C23.3747 14.1024 22.6365 14.0962 22.1783 14.5466L21.5425 15.1714C21.0843 15.6219 21.0538 16.3843 21.5042 16.8426L24.4109 19.7492C24.8613 20.2075 25.6238 20.238 26.082 19.7876L28.9887 16.8809C29.4469 16.4304 29.4532 15.6922 29.0028 15.234L28.3779 14.5982C27.9275 14.14 27.1893 14.1337 26.7311 14.5842L26.0953 15.209C25.637 15.6594 24.8996 15.6539 24.4484 15.1949L24.45 15.1965Z"
        fill="black" />
    <path
        d="M15.6965 6.45681L15.0607 5.83199C14.6024 5.38156 14.5962 4.64336 15.0466 4.18511L15.6714 3.54934C16.1219 3.09109 16.8843 3.06059 17.3426 3.51102L20.2492 6.41771C20.7075 6.86814 20.738 7.63059 20.2876 8.08884L17.3809 10.9955C16.9304 11.4538 16.1922 11.46 15.734 11.0096L15.0982 10.3848C14.64 9.93435 14.6337 9.19615 15.0842 8.7379L15.709 8.10213C16.1594 7.64388 16.1539 6.90646 15.6949 6.45525L15.6965 6.45681Z"
        fill="black" />
    <path
        d="M9.18718 9.81287L8.29581 9.82062C7.65328 9.82615 7.12686 9.30858 7.12133 8.66604L7.11359 7.77468C7.10806 7.13214 7.62563 6.57145 8.26817 6.56592H12.3788C13.0214 6.56039 13.5821 7.07795 13.5876 7.72049V11.8312C13.5931 12.4737 13.0756 13.0001 12.433 13.0056L11.5417 13.0134C10.8991 13.0189 10.3727 12.5013 10.3672 11.8588L10.3594 10.9674C10.3539 10.3249 9.82861 9.80734 9.18497 9.81287H9.18718Z"
        fill="black" />
    <path
        d="M17.304 23.9319L17.9398 23.3071C18.398 22.8567 18.4043 22.1185 17.9539 21.6602L17.3291 21.0244C16.8786 20.5662 16.1162 20.5357 15.6579 20.9861L12.7512 23.8928C12.293 24.3432 12.2625 25.1057 12.7129 25.5639L15.6196 28.4706C16.07 28.9289 16.8082 28.9351 17.2665 28.4847L17.9023 27.8599C18.3605 27.4095 18.3668 26.6712 17.9163 26.213L17.2915 25.5772C16.8411 25.119 16.8466 24.3816 17.3056 23.9303L17.304 23.9319Z"
        fill="black" />
    <path
        d="M10.3273 23.3241L10.335 24.2154C10.3405 24.858 9.82298 25.3844 9.18045 25.3899L8.28908 25.3976C7.64655 25.4032 7.08585 24.8856 7.08032 24.2431L7.08032 20.1324C7.07479 19.4899 7.59236 18.9292 8.23489 18.9236L12.3456 18.9236C12.9881 18.9181 13.5145 19.4357 13.52 20.0782L13.5278 20.9696C13.5333 21.6121 13.0158 22.1385 12.3732 22.144L11.4819 22.1518C10.8393 22.1573 10.3217 22.6826 10.3273 23.3263L10.3273 23.3241Z"
        fill="black" />
    <path
        d="M22.6341 8.63396L22.6264 7.74259C22.6209 7.10006 23.1384 6.57364 23.781 6.56811L24.6723 6.56037C25.3149 6.55484 25.8756 7.07241 25.8811 7.71494L25.8811 11.8256C25.8866 12.4682 25.3691 13.0289 24.7265 13.0344L20.6159 13.0344C19.9733 13.0399 19.4469 12.5223 19.4414 11.8798L19.4336 10.9884C19.4281 10.3459 19.9457 9.81949 20.5882 9.81396L21.4796 9.80622C22.1221 9.80069 22.6397 9.27539 22.6341 8.63174L22.6341 8.63396Z"
        fill="black" />
    <path
        d="M42.2195 21.8571L46.0445 11.8089H54.1679C54.5661 11.8089 54.8941 11.9019 55.1517 12.088C55.4194 12.2741 55.5926 12.5253 55.6712 12.8416C55.7634 13.1486 55.7369 13.4929 55.5917 13.8743L54.8745 15.7584C54.8285 15.8793 54.7743 15.9956 54.7118 16.1073C54.6629 16.2096 54.6009 16.3073 54.5256 16.4003C54.6077 16.5771 54.6542 16.7818 54.6652 17.0144C54.6762 17.247 54.6374 17.4796 54.5489 17.7122L53.7573 19.7916C53.6157 20.1638 53.3801 20.508 53.0506 20.8244C52.7311 21.1407 52.3667 21.3919 51.9574 21.578C51.558 21.764 51.1543 21.8571 50.7461 21.8571H42.2195ZM45.3628 19.68H51.4554L52.1566 17.8378H46.0641L45.3628 19.68ZM46.8928 15.6607H52.5673L53.2048 13.986H47.5303L46.8928 15.6607Z"
        fill="black" />
    <path
        d="M54.6888 21.8571L57.7701 13.7627H60.0548L56.9735 21.8571H54.6888ZM57.9613 13.2603L58.7794 11.1111H61.0641L60.246 13.2603H57.9613Z"
        fill="black" />
    <path
        d="M60.7373 21.8571C60.3391 21.8571 60.0111 21.764 59.7535 21.578C59.4958 21.3919 59.3258 21.1453 59.2436 20.8383C59.1614 20.5313 59.1893 20.1963 59.3274 19.8335L62.5521 11.3623H64.8368L63.9231 13.7627H67.1336L66.3208 15.8979H63.1103L61.6546 19.7218H64.8652L64.0524 21.8571H60.7373Z"
        fill="black" />
    <path
        d="M67.5791 21.8571C67.1908 21.8571 66.8679 21.764 66.6102 21.578C66.3525 21.3919 66.1825 21.1453 66.1003 20.8383C66.0181 20.5313 66.046 20.1963 66.1841 19.8335L67.7248 15.7863C67.8629 15.4234 68.0899 15.0885 68.4059 14.7815C68.7219 14.4744 69.0796 14.2279 69.4789 14.0418C69.8783 13.8557 70.2721 13.7627 70.6603 13.7627H77.2606L76.4478 15.8979H69.967L68.5114 19.7218H75.0071L74.1943 21.8571H67.5791Z"
        fill="black" />
    <path
        d="M77.9655 21.8571C77.5773 21.8571 77.2543 21.764 76.9966 21.578C76.7389 21.3919 76.569 21.1453 76.4867 20.8383C76.4045 20.5313 76.4325 20.1963 76.5706 19.8335L78.1112 15.7863C78.2493 15.4234 78.4764 15.0885 78.7924 14.7815C79.1083 14.4744 79.466 14.2279 79.8654 14.0418C80.2647 13.8557 80.6585 13.7627 81.0468 13.7627H85.4967C85.895 13.7627 86.2229 13.8557 86.4806 14.0418C86.7383 14.2279 86.9033 14.4744 86.9755 14.7815C87.0578 15.0885 87.0298 15.4234 86.8917 15.7863L85.3511 19.8335C85.2129 20.1963 84.9859 20.5313 84.6699 20.8383C84.3639 21.1453 84.0112 21.3919 83.6118 21.578C83.2125 21.764 82.8137 21.8571 82.4155 21.8571H77.9655ZM78.8978 19.7218H83.1089L84.5645 15.8979H80.3534L78.8978 19.7218Z"
        fill="black" />
    <path
        d="M86.3037 21.8571L89.385 13.7627H91.6697L88.5885 21.8571H86.3037ZM89.5762 13.2603L90.3944 11.1111H92.6791L91.8609 13.2603H89.5762Z"
        fill="black" />
    <path
        d="M90.4932 21.8571L93.5744 13.7627H100.19C100.588 13.7627 100.916 13.8557 101.174 14.0418C101.431 14.2279 101.596 14.4744 101.668 14.7815C101.751 15.0885 101.723 15.4234 101.585 15.7863L99.2737 21.8571H96.989L99.2574 15.8979H95.0463L92.7779 21.8571H90.4932Z"
        fill="black" />
    <path
        d="M105.874 21.8571L108.912 13.8743C109.057 13.4929 109.288 13.1486 109.604 12.8416C109.924 12.5253 110.288 12.2741 110.697 12.088C111.107 11.9019 111.51 11.8089 111.909 11.8089H118.225C118.633 11.8089 118.966 11.9019 119.224 12.088C119.492 12.2741 119.665 12.5253 119.743 12.8416C119.836 13.1486 119.809 13.4929 119.664 13.8743L116.625 21.8571H114.281L115.513 18.6193H109.421L108.188 21.8571H105.874ZM110.249 16.4422H116.342L117.277 13.986H111.184L110.249 16.4422Z"
        fill="black" />
    <path
        d="M118.416 21.8571L120.727 15.7863C120.865 15.4234 121.092 15.0885 121.408 14.7815C121.724 14.4744 122.082 14.2279 122.481 14.0418C122.881 13.8557 123.279 13.7627 123.678 13.7627H128.456L127.643 15.8979H122.969L120.701 21.8571H118.416Z"
        fill="black" />
    <path
        d="M128.576 21.8571C128.188 21.8571 127.865 21.764 127.607 21.578C127.349 21.3919 127.179 21.1453 127.097 20.8383C127.015 20.5313 127.043 20.1963 127.181 19.8335L128.722 15.7863C128.86 15.4234 129.087 15.0885 129.403 14.7815C129.719 14.4744 130.076 14.2279 130.476 14.0418C130.875 13.8557 131.269 13.7627 131.657 13.7627H138.257L137.445 15.8979H130.964L129.508 19.7218H136.004L135.191 21.8571H128.576Z"
        fill="black" />
    <path
        d="M138.977 21.8571C138.579 21.8571 138.251 21.764 137.993 21.578C137.736 21.3919 137.566 21.1453 137.484 20.8383C137.411 20.5313 137.444 20.1963 137.582 19.8335L138.762 16.7353H145.257L145.576 15.8979H139.08L139.893 13.7627H146.509C146.907 13.7627 147.235 13.8557 147.492 14.0418C147.75 14.2279 147.915 14.4744 147.987 14.7815C148.07 15.0885 148.042 15.4234 147.903 15.7863L145.593 21.8571H138.977ZM139.91 19.7218H144.121L144.546 18.6054H140.335L139.91 19.7218Z"
        fill="black" />
    <path
        d="M149.062 21.8571C148.664 21.8571 148.336 21.764 148.078 21.578C147.82 21.3919 147.65 21.1453 147.568 20.8383C147.496 20.5313 147.529 20.1963 147.667 19.8335L149.208 15.7863C149.346 15.4234 149.568 15.0885 149.874 14.7815C150.19 14.4744 150.547 14.2279 150.947 14.0418C151.346 13.8557 151.745 13.7627 152.143 13.7627H156.489L157.498 11.1111H159.783L155.692 21.8571H149.062ZM150.009 19.7218H154.22L155.676 15.8979H151.465L150.009 19.7218Z"
        fill="black" />
    <path
        d="M159.254 21.8571C158.866 21.8571 158.543 21.764 158.285 21.578C158.027 21.3919 157.857 21.1453 157.775 20.8383C157.693 20.5313 157.721 20.1963 157.859 19.8335L159.4 15.7863C159.538 15.4234 159.765 15.0885 160.081 14.7815C160.397 14.4744 160.755 14.2279 161.154 14.0418C161.553 13.8557 161.947 13.7627 162.335 13.7627H166.785C167.183 13.7627 167.511 13.8557 167.769 14.0418C168.027 14.2279 168.192 14.4744 168.264 14.7815C168.346 15.0885 168.318 15.4234 168.18 15.7863L167.001 18.8845H160.505L160.186 19.7218H166.682L165.869 21.8571H159.254ZM161.217 17.0144H165.428L165.853 15.8979H161.642L161.217 17.0144Z"
        fill="black" />
</svg>